<?xml version="1.0"?>
<svg xmlns="http://www.w3.org/2000/svg" xmlns:xlink="http://www.w3.org/1999/xlink" id="svg" version="1.1" width="400" height="56.11222444889779" viewBox="0, 0, 400,56.11222444889779" style="background-color:transparent;">
  <g id="svgg">
    <path id="path0" d="M0.000 28.056 L 0.000 56.112 200.000 56.112 L 400.000 56.112 400.000 28.056 L 400.000 0.000 200.000 0.000 L 0.000 0.000 0.000 28.056 M222.162 1.063 C 223.272 1.637,230.138 3.201,231.563 3.205 C 231.839 3.206,232.064 2.905,232.064 2.537 C 232.064 1.557,233.257 0.401,234.269 0.401 C 235.556 0.401,236.608 1.747,236.372 3.090 C 236.054 4.897,234.013 12.162,233.609 12.926 C 232.873 14.318,230.060 13.472,230.060 11.859 C 230.060 10.982,229.940 10.934,228.237 11.126 C 227.134 11.250,225.407 11.058,223.861 10.640 L 221.307 9.948 220.039 10.886 C 218.707 11.872,215.038 12.203,213.527 11.475 C 213.021 11.231,212.826 11.304,212.826 11.737 C 212.826 12.068,213.311 12.460,213.903 12.608 C 218.696 13.811,220.107 21.772,215.870 23.703 C 214.601 24.281,214.587 24.369,214.839 30.207 C 215.084 35.893,215.079 35.923,213.756 36.255 C 211.462 36.830,210.906 35.802,210.756 30.707 C 210.601 25.433,210.740 25.726,208.503 25.960 C 206.624 26.156,206.172 26.741,204.114 31.642 C 202.618 35.205,200.397 36.710,198.878 35.190 C 198.305 34.617,198.241 32.782,198.776 32.244 C 200.577 30.435,203.099 24.184,202.490 23.042 C 200.816 19.905,201.946 16.286,205.162 14.490 C 206.353 13.825,207.097 13.016,207.703 11.726 C 208.228 10.610,209.216 9.440,210.248 8.712 C 211.559 7.789,211.989 7.195,212.171 6.057 C 212.785 2.216,218.688 -0.734,222.162 1.063 M233.778 1.698 C 232.404 3.454,231.079 13.657,232.414 12.204 C 232.803 11.781,235.271 3.534,235.271 2.657 C 235.271 1.754,234.249 1.098,233.778 1.698 M216.834 2.384 C 214.869 3.429,213.616 4.888,213.235 6.574 C 212.842 8.320,212.884 8.323,215.918 6.807 C 218.421 5.556,221.237 5.078,221.515 5.857 C 221.604 6.108,221.044 6.405,220.235 6.537 C 218.551 6.810,213.226 9.186,213.226 9.664 C 213.226 11.421,219.535 10.933,220.136 9.130 C 220.271 8.725,220.782 8.735,222.678 9.178 C 229.006 10.656,230.474 10.277,231.164 6.986 C 231.752 4.185,232.130 4.548,227.827 3.780 C 225.859 3.428,223.343 2.795,222.237 2.372 C 219.756 1.424,218.636 1.426,216.834 2.384 M62.093 3.442 C 64.856 5.767,63.022 10.020,59.257 10.020 C 58.019 10.020,57.387 9.753,56.482 8.848 C 52.875 5.241,58.169 0.140,62.093 3.442 M124.218 3.442 C 125.955 4.905,125.960 7.167,124.229 8.898 C 121.799 11.328,117.435 9.569,117.435 6.159 C 117.435 2.850,121.553 1.200,124.218 3.442 M298.679 3.106 C 299.548 4.111,299.809 5.534,299.347 6.748 C 298.242 9.655,294.589 8.735,294.589 5.549 C 294.589 2.925,297.182 1.376,298.679 3.106 M351.972 3.068 C 352.916 3.922,352.958 6.672,352.042 7.684 C 350.467 9.424,347.896 8.101,347.896 5.549 C 347.896 2.920,350.235 1.496,351.972 3.068 M21.635 5.484 C 28.543 7.715,31.270 15.848,27.241 22.202 C 25.025 25.696,21.112 27.255,14.557 27.255 L 10.421 27.255 10.421 33.868 L 10.421 40.481 6.660 40.481 L 2.900 40.481 2.916 22.645 L 2.931 4.810 11.239 4.810 C 17.930 4.810,19.954 4.941,21.635 5.484 M262.551 5.211 C 266.137 6.207,268.537 9.860,268.537 14.323 C 268.537 21.079,265.299 24.422,258.417 24.770 L 254.910 24.948 254.910 29.880 C 254.910 35.620,255.131 36.072,257.944 36.072 C 259.571 36.072,259.719 36.156,259.719 37.074 L 259.719 38.076 252.705 38.076 L 245.691 38.076 245.691 37.074 C 245.691 36.196,245.865 36.072,247.094 36.072 C 250.110 36.072,250.100 36.120,250.100 21.519 C 250.100 7.062,250.146 7.306,247.381 6.935 C 245.935 6.741,245.691 6.571,245.691 5.759 L 245.691 4.810 253.407 4.812 C 257.650 4.813,261.765 4.993,262.551 5.211 M104.208 9.820 L 104.208 13.226 108.216 13.226 L 112.224 13.226 112.224 15.832 L 112.224 18.437 108.216 18.437 L 104.208 18.437 104.208 25.562 C 104.208 34.609,104.239 34.673,108.409 34.358 L 111.286 34.140 111.924 36.806 C 112.670 39.924,112.735 39.845,108.928 40.525 C 100.180 42.088,97.387 38.764,97.184 26.545 L 97.053 18.637 95.220 18.515 L 93.387 18.393 93.434 16.712 C 93.525 13.495,93.800 13.026,95.591 13.026 L 97.194 13.026 97.113 10.323 C 97.023 7.302,96.706 7.599,100.802 6.863 C 104.448 6.207,104.208 5.999,104.208 9.820 M254.910 15.085 L 254.910 22.955 257.515 22.746 C 262.127 22.376,263.466 20.691,263.487 15.230 C 263.512 9.060,262.117 7.219,257.415 7.216 L 254.910 7.214 254.910 15.085 M210.321 10.052 C 209.256 10.672,208.216 12.826,208.982 12.826 C 210.579 12.826,211.623 12.037,211.623 10.832 C 211.623 9.533,211.420 9.412,210.321 10.052 M10.421 16.078 L 10.421 21.734 14.529 21.574 C 20.250 21.352,21.808 20.116,21.743 15.849 C 21.683 11.882,19.550 10.421,13.820 10.421 L 10.421 10.421 10.421 16.078 M50.484 12.682 L 51.769 12.939 51.515 15.387 C 51.017 20.184,51.248 19.883,48.184 19.731 C 42.402 19.443,41.559 20.978,41.354 32.164 L 41.202 40.481 37.835 40.481 L 34.469 40.481 34.469 26.637 L 34.469 12.793 37.776 12.910 L 41.082 13.026 41.068 15.030 L 41.054 17.034 42.931 15.152 C 45.298 12.779,47.450 12.075,50.484 12.682 M83.826 13.212 C 85.226 13.646,86.994 14.519,87.752 15.153 L 89.132 16.306 87.389 18.374 C 85.342 20.801,85.750 20.674,83.945 19.449 C 80.591 17.173,76.152 17.760,76.152 20.481 C 76.152 21.979,77.094 22.565,81.573 23.856 C 89.223 26.062,91.942 30.287,89.238 35.767 C 86.464 41.390,76.648 42.782,70.897 38.366 C 68.191 36.288,68.150 36.045,70.110 33.704 L 71.827 31.653 73.259 32.911 C 75.215 34.629,76.926 35.271,79.546 35.271 C 84.649 35.271,84.673 30.857,79.575 29.845 C 72.675 28.476,69.339 25.639,69.339 21.140 C 69.339 14.820,76.446 10.931,83.826 13.212 M152.705 13.643 C 157.011 15.829,157.515 17.577,157.515 30.311 L 157.515 40.481 154.108 40.481 L 150.701 40.481 150.701 31.450 C 150.701 19.621,150.397 18.838,145.807 18.838 C 141.001 18.838,140.153 20.739,139.952 31.964 L 139.800 40.481 136.433 40.481 L 133.066 40.481 133.066 26.854 L 133.066 13.226 136.473 13.226 L 139.880 13.226 139.896 15.531 C 139.912 17.787,139.924 17.813,140.501 16.750 C 142.454 13.152,148.638 11.578,152.705 13.643 M182.902 13.779 C 186.895 15.733,189.178 19.983,189.178 25.465 L 189.178 28.457 179.960 28.457 C 174.890 28.457,170.742 28.592,170.744 28.758 C 170.783 34.038,178.434 36.983,182.237 33.181 L 183.725 31.692 186.428 33.152 L 189.131 34.612 188.307 35.770 C 183.121 43.052,169.154 41.822,165.271 33.740 C 159.282 21.278,171.035 7.973,182.902 13.779 M278.575 15.130 L 278.593 17.435 279.395 15.915 C 281.773 11.409,289.780 11.788,289.780 16.406 C 289.780 18.234,288.780 19.275,286.976 19.326 C 285.680 19.363,284.987 18.764,284.976 17.597 C 284.963 16.253,283.434 15.390,282.237 16.051 C 279.982 17.296,279.559 19.056,279.559 27.189 C 279.559 35.466,279.781 36.072,282.810 36.072 C 283.992 36.072,284.168 36.202,284.168 37.074 L 284.168 38.076 277.555 38.076 L 270.942 38.076 270.942 37.074 C 270.942 36.250,271.137 36.071,272.044 36.066 C 274.696 36.051,274.951 35.128,274.944 25.577 C 274.937 16.523,274.754 15.690,272.645 15.144 C 271.618 14.878,271.343 14.597,271.343 13.816 C 271.343 12.836,271.381 12.826,274.950 12.826 L 278.557 12.826 278.575 15.130 M299.399 23.465 L 299.399 34.105 300.383 35.088 C 300.996 35.702,301.825 36.072,302.587 36.072 C 303.622 36.072,303.808 36.225,303.808 37.074 L 303.808 38.076 297.244 38.076 L 290.681 38.076 290.681 37.074 C 290.681 36.203,290.858 36.072,292.034 36.072 C 294.849 36.072,294.990 35.578,294.990 25.740 C 294.990 15.998,294.844 15.383,292.480 15.155 C 291.400 15.051,291.161 14.845,291.056 13.928 L 290.929 12.826 295.164 12.826 L 299.399 12.826 299.399 23.465 M312.147 14.733 L 312.271 16.439 313.297 15.219 C 316.302 11.649,322.699 11.993,324.526 15.823 L 325.193 17.223 325.779 16.014 C 327.448 12.568,334.257 11.634,336.875 14.491 C 338.801 16.592,339.073 18.112,339.076 26.754 C 339.078 35.356,339.294 36.072,341.884 36.072 C 342.899 36.072,343.086 36.228,343.086 37.074 L 343.086 38.076 338.878 38.076 L 334.669 38.076 334.669 29.156 C 334.669 16.383,333.230 13.457,328.398 16.403 C 324.950 18.506,324.879 36.072,328.319 36.072 C 328.840 36.072,329.058 36.367,329.058 37.074 C 329.058 38.073,329.045 38.076,325.251 38.076 L 321.443 38.076 321.441 28.958 C 321.438 16.821,320.900 15.222,316.995 15.746 C 313.522 16.212,313.026 17.625,312.957 27.252 C 312.901 35.067,313.166 36.072,315.275 36.072 C 315.602 36.072,315.832 36.486,315.832 37.074 L 315.832 38.076 310.220 38.076 L 304.609 38.076 304.609 37.074 C 304.609 36.299,304.816 36.072,305.522 36.072 C 308.124 36.072,308.216 35.720,308.216 25.760 C 308.216 15.915,308.069 15.230,305.950 15.230 C 305.170 15.230,305.010 15.023,305.010 14.012 L 305.010 12.794 308.517 12.910 L 312.024 13.026 312.147 14.733 M352.705 23.647 C 352.705 35.861,352.757 36.072,355.711 36.072 C 356.941 36.072,357.114 36.196,357.114 37.074 L 357.114 38.076 350.701 38.076 L 344.289 38.076 344.289 37.074 C 344.289 36.243,344.481 36.072,345.414 36.072 C 348.012 36.072,348.084 35.826,348.218 26.368 C 348.358 16.515,348.225 15.859,345.965 15.250 C 344.588 14.879,344.423 14.709,344.591 13.827 C 344.780 12.839,344.838 12.826,348.744 12.826 L 352.705 12.826 352.705 23.647 M371.818 13.252 C 374.992 14.451,376.829 17.688,377.073 22.515 L 377.250 25.993 374.296 25.967 C 372.672 25.953,369.477 25.966,367.197 25.997 L 363.051 26.052 363.331 28.156 C 363.702 30.937,364.984 33.880,366.159 34.650 C 368.223 36.002,373.162 35.102,374.583 33.114 C 375.181 32.277,375.199 32.276,375.771 33.043 C 379.079 37.469,367.194 40.347,362.433 36.272 C 357.830 32.333,357.364 19.937,361.643 15.283 C 363.634 13.117,368.755 12.095,371.818 13.252 M387.209 15.230 C 387.339 16.443,387.474 17.127,387.510 16.750 C 387.909 12.571,396.558 11.248,398.038 15.140 C 398.694 16.867,398.098 18.435,396.538 19.087 C 394.836 19.798,393.979 19.395,393.374 17.598 C 392.755 15.759,391.855 15.274,390.485 16.043 C 388.504 17.155,388.022 19.347,387.998 27.355 C 387.973 35.549,388.164 36.072,391.182 36.072 C 392.625 36.072,392.786 36.172,392.786 37.074 L 392.786 38.076 385.972 38.076 L 379.158 38.076 379.158 37.074 C 379.158 36.246,379.351 36.072,380.272 36.072 C 383.094 36.072,383.166 35.817,383.166 25.862 C 383.166 15.601,383.201 15.779,381.121 15.219 C 379.835 14.873,379.559 14.622,379.559 13.797 L 379.559 12.796 383.267 12.911 L 386.974 13.026 387.209 15.230 M62.926 26.854 L 62.926 40.481 59.519 40.481 L 56.112 40.481 56.112 26.854 L 56.112 13.226 59.519 13.226 L 62.926 13.226 62.926 26.854 M125.050 26.854 L 125.050 40.481 121.643 40.481 L 118.236 40.481 118.236 26.854 L 118.236 13.226 121.643 13.226 L 125.050 13.226 125.050 26.854 M209.442 14.066 C 209.591 14.307,210.819 15.001,212.171 15.607 C 213.523 16.214,214.863 16.993,215.150 17.338 C 216.156 18.550,214.906 18.417,212.242 17.029 C 208.002 14.819,207.576 15.091,209.015 19.092 C 209.984 21.786,211.474 23.647,212.660 23.647 C 217.261 23.647,218.951 16.360,214.843 14.235 C 213.464 13.522,209.020 13.383,209.442 14.066 M204.666 16.059 C 202.683 17.619,202.379 22.800,204.229 23.510 C 205.014 23.811,204.959 24.433,204.060 25.425 C 203.171 26.406,199.599 33.287,199.599 34.017 C 199.599 35.840,201.516 34.039,203.206 30.629 C 205.908 25.178,206.175 24.851,207.925 24.844 C 210.335 24.834,210.700 24.370,209.545 22.789 C 209.004 22.049,208.045 20.126,207.415 18.516 C 206.058 15.052,206.006 15.005,204.666 16.059 M365.311 16.291 C 364.353 17.325,363.857 18.675,363.307 21.743 L 363.037 23.246 367.853 23.246 L 372.669 23.246 372.480 21.543 C 371.854 15.925,368.159 13.218,365.311 16.291 M174.078 18.599 C 172.671 19.235,171.701 20.495,171.156 22.396 L 170.797 23.647 176.634 23.647 L 182.470 23.647 182.229 22.164 C 181.696 18.879,177.508 17.047,174.078 18.599 M211.769 26.709 C 211.909 27.732,212.024 29.992,212.024 31.732 C 212.024 34.213,212.157 34.946,212.643 35.132 C 213.764 35.563,213.824 35.179,213.638 28.758 C 213.526 24.883,213.517 24.850,212.520 24.850 C 211.554 24.850,211.524 24.923,211.769 26.709 M192.711 37.575 C 192.863 39.149,193.702 39.263,196.336 38.067 C 200.484 36.186,207.800 37.989,210.720 41.613 C 211.167 42.169,211.481 42.142,213.726 41.353 C 216.707 40.306,218.705 40.237,219.708 41.144 C 221.307 42.591,220.388 43.429,215.216 45.240 C 214.011 45.662,212.034 46.475,210.822 47.048 C 208.142 48.313,205.654 48.395,202.720 47.318 C 201.555 46.889,199.429 46.336,197.996 46.088 C 196.563 45.841,194.958 45.533,194.428 45.406 C 193.505 45.183,193.475 45.241,193.690 46.844 C 194.041 49.464,190.896 50.705,189.984 48.306 C 189.144 46.098,189.021 37.179,189.822 36.593 C 191.169 35.608,192.567 36.083,192.711 37.575 M190.561 42.340 C 190.895 48.202,190.996 48.625,191.939 48.120 C 192.558 47.789,192.575 47.323,192.142 42.617 C 191.591 36.614,191.741 37.275,190.928 37.275 C 190.340 37.275,190.302 37.801,190.561 42.340 M198.196 38.726 C 197.094 39.047,195.496 39.510,194.644 39.755 C 193.102 40.199,193.096 40.208,193.294 41.964 C 193.549 44.225,193.307 44.069,197.879 44.912 C 200.038 45.310,202.510 45.934,203.373 46.298 C 206.171 47.479,208.380 46.972,217.725 43.006 C 219.457 42.271,219.353 41.683,217.489 41.683 C 216.085 41.683,211.402 43.114,210.421 43.842 C 209.570 44.474,204.328 44.428,204.111 43.788 C 203.998 43.454,204.387 43.285,205.277 43.282 C 209.896 43.267,210.587 42.435,207.515 40.586 C 203.768 38.331,201.266 37.832,198.196 38.726 M308.617 47.295 C 308.617 52.015,308.522 52.906,308.016 52.906 C 307.510 52.906,307.415 52.015,307.415 47.295 C 307.415 42.574,307.510 41.683,308.016 41.683 C 308.522 41.683,308.617 42.574,308.617 47.295 M286.848 42.956 C 288.509 44.516,287.426 48.497,285.341 48.497 C 285.084 48.497,285.494 49.264,286.253 50.200 C 288.232 52.646,288.347 52.906,287.447 52.906 C 286.983 52.906,286.014 52.054,285.039 50.790 C 282.654 47.699,281.363 47.669,281.363 50.706 C 281.363 52.639,281.265 52.906,280.561 52.906 C 279.799 52.906,279.760 52.639,279.760 47.495 L 279.760 42.084 282.840 42.084 C 285.451 42.084,286.062 42.217,286.848 42.956 M326.253 42.685 C 326.253 43.153,325.718 43.287,323.848 43.287 L 321.443 43.287 321.443 44.890 L 321.443 46.493 323.647 46.493 C 325.340 46.493,325.852 46.633,325.852 47.094 C 325.852 47.556,325.340 47.695,323.647 47.695 L 321.443 47.695 321.443 49.699 L 321.443 51.703 324.248 51.703 C 326.475 51.703,327.054 51.827,327.054 52.305 C 327.054 52.794,326.386 52.906,323.447 52.906 L 319.840 52.906 319.840 47.495 L 319.840 42.084 323.046 42.084 C 325.629 42.084,326.253 42.201,326.253 42.685 M337.876 43.687 C 337.876 44.703,338.032 44.890,338.878 44.890 C 339.501 44.890,339.880 45.117,339.880 45.491 C 339.880 45.868,339.499 46.092,338.860 46.092 C 337.851 46.092,337.842 46.121,337.958 48.998 C 338.076 51.893,338.080 51.904,339.178 51.828 C 340.385 51.746,340.727 52.649,339.647 53.063 C 337.499 53.888,336.673 52.779,336.673 49.070 C 336.673 46.359,336.601 46.092,335.872 46.092 C 335.426 46.092,335.070 45.825,335.070 45.491 C 335.070 45.157,335.426 44.890,335.872 44.890 C 336.495 44.890,336.673 44.623,336.673 43.687 C 336.673 42.886,336.874 42.485,337.275 42.485 C 337.675 42.485,337.876 42.886,337.876 43.687 M351.503 43.687 C 351.503 44.703,351.659 44.890,352.505 44.890 C 353.128 44.890,353.507 45.117,353.507 45.491 C 353.507 45.868,353.127 46.092,352.487 46.092 C 351.478 46.092,351.469 46.121,351.586 48.998 C 351.703 51.893,351.707 51.904,352.806 51.828 C 354.200 51.733,354.311 52.789,352.943 53.133 C 350.729 53.688,349.652 51.803,349.961 47.912 C 350.082 46.388,349.991 46.092,349.402 46.092 C 349.014 46.092,348.697 45.822,348.697 45.491 C 348.697 45.160,348.968 44.890,349.299 44.890 C 349.699 44.890,349.900 44.489,349.900 43.687 C 349.900 42.752,350.078 42.485,350.701 42.485 C 351.325 42.485,351.503 42.752,351.503 43.687 M281.363 45.291 L 281.363 47.295 283.305 47.295 C 284.677 47.295,285.441 47.080,285.910 46.562 C 287.461 44.848,286.235 43.287,283.338 43.287 L 281.363 43.287 281.363 45.291 M295.171 45.056 C 298.914 46.620,298.294 49.299,294.188 49.299 C 290.701 49.299,290.395 49.549,291.966 51.120 C 293.154 52.309,294.611 52.386,295.583 51.312 C 296.341 50.475,296.994 50.569,296.994 51.516 C 296.994 52.858,293.845 53.681,291.973 52.828 C 288.816 51.390,289.354 45.417,292.699 44.770 C 293.188 44.675,293.638 44.574,293.700 44.544 C 293.762 44.514,294.424 44.744,295.171 45.056 M303.292 44.910 C 305.261 45.596,306.649 52.906,304.810 52.906 C 304.479 52.906,304.208 52.736,304.208 52.529 C 304.208 52.321,303.712 52.410,303.106 52.727 C 301.612 53.506,300.897 53.454,299.653 52.476 C 297.328 50.647,298.962 47.875,302.183 48.185 C 304.002 48.360,304.065 48.330,303.887 47.397 C 303.613 45.966,302.101 45.404,300.807 46.252 C 299.603 47.041,298.693 46.742,299.466 45.811 C 299.914 45.271,301.171 44.585,301.844 44.514 C 301.976 44.500,302.628 44.678,303.292 44.910 M332.966 45.085 C 333.462 45.228,333.868 45.622,333.868 45.962 C 333.868 46.362,333.643 46.493,333.229 46.334 C 329.178 44.779,328.345 46.772,332.265 48.640 C 333.772 49.358,334.088 49.707,334.191 50.763 C 334.399 52.905,331.815 53.998,329.277 52.841 C 327.966 52.244,327.863 51.085,329.158 51.494 C 333.167 52.759,334.810 50.792,330.881 49.432 C 328.189 48.500,327.411 46.953,328.958 45.605 C 330.213 44.512,330.736 44.444,332.966 45.085 M346.816 45.673 C 347.985 46.782,348.193 52.906,347.061 52.906 C 346.612 52.906,346.357 52.725,346.493 52.505 C 346.853 51.922,346.214 52.037,345.314 52.718 C 343.556 54.048,341.082 52.788,341.082 50.563 C 341.082 48.837,342.283 47.983,344.467 48.157 C 346.565 48.324,347.027 47.394,345.382 46.315 C 344.471 45.719,342.685 45.867,342.685 46.540 C 342.685 46.734,342.415 46.894,342.084 46.894 C 340.983 46.894,341.464 45.661,342.786 45.096 C 344.272 44.461,345.763 44.675,346.816 45.673 M360.681 45.423 C 361.261 45.904,362.325 48.145,362.325 48.885 C 362.325 49.135,361.055 49.299,359.118 49.299 C 355.621 49.299,355.124 49.713,356.713 51.303 C 357.683 52.272,359.018 52.330,360.265 51.457 C 361.485 50.603,362.244 51.289,361.163 52.268 C 358.463 54.711,353.999 52.326,354.412 48.662 C 354.800 45.214,358.268 43.422,360.681 45.423 M292.712 46.099 C 291.767 46.475,290.851 47.832,291.263 48.244 C 291.781 48.762,296.192 48.519,296.192 47.972 C 296.192 46.532,294.249 45.486,292.712 46.099 M357.515 45.974 C 356.753 46.241,355.912 47.289,355.912 47.972 C 355.912 48.346,356.602 48.497,358.317 48.497 C 360.031 48.497,360.721 48.346,360.721 47.972 C 360.721 46.679,358.843 45.508,357.515 45.974 M300.701 49.163 C 299.828 49.516,300.094 51.615,301.050 51.919 C 302.239 52.297,303.808 51.362,303.808 50.276 C 303.808 49.090,302.258 48.535,300.701 49.163 M342.919 49.425 C 342.066 50.049,342.198 51.237,343.190 51.861 C 344.074 52.417,346.016 51.442,346.229 50.335 C 346.488 48.990,344.326 48.396,342.919 49.425 " stroke="none" fill="#000000" fill-rule="evenodd"/>
  </g>
</svg>
